<?xml version="1.0" encoding="utf-8"?>
<!-- Generator: Adobe Illustrator 26.0.2, SVG Export Plug-In . SVG Version: 6.00 Build 0)  -->
<svg version="1.1" id="Layer_1" xmlns="http://www.w3.org/2000/svg" xmlns:xlink="http://www.w3.org/1999/xlink" x="0px" y="0px"
	 viewBox="0 0 1475.2 983.5" style="enable-background:new 0 0 1475.2 983.5;" xml:space="preserve">
<style type="text/css">
	.st0{fill:#FED44C;}
	.st1{fill:#F6931E;}
	.st2{fill:#0070AE;}
</style>
<g>
	<path class="st0" d="M139.6,453.9c7.4-1.6,14-2.4,19.9-2.4c5.9,0,10.8,0.1,14.7,0.4V462c3.3-2.8,7.8-5.1,13.4-6.9
		c5.6-1.8,10.9-2.7,16-2.7c13.1,0,22.4,3.1,27.7,9.2c5.3,6.2,7.9,16.8,7.9,32v38.6c5.2,2,8.9,4.3,11.1,6.8l-2,15.5H202l-2-15.5
		c1.9-2.5,5.6-4.8,11.1-6.8v-39.8c0-7.2-1.2-12.1-3.5-14.6c-2.4-2.5-6.5-3.7-12.6-3.7c-6,0-12.1,2.1-18.1,6.4v51.7
		c5.2,2,8.9,4.3,11.1,6.8l-2,15.5h-46.3l-2-15.5c1.9-2.5,5.6-4.8,11.1-6.8v-55.9c-4.7-1.6-8.4-3.9-11.1-6.8L139.6,453.9z"/>
	<path class="st0" d="M305.6,556.1c-16.1,0-28.2-4.3-36.3-12.9c-8.1-8.6-12.2-21-12.2-37.4c0-9.9,1.4-18.5,4.2-25.6
		c2.8-7.2,6.6-12.7,11.5-16.6c9.4-7.5,20.3-11.3,32.8-11.3s22,3.2,28.7,9.6c6.6,6.4,10,17.8,10,34.3c0,9.7-4.8,14.5-14.3,14.5h-43.6
		c0.5,8.4,2.7,14.4,6.5,17.9c3.8,3.5,9.9,5.2,18.2,5.2c4.6,0,8.9-0.5,13.1-1.6c4.2-1.1,7.2-2.1,9.1-3.2l2.8-1.6l6,16.1
		c-0.8,0.9-2,2.1-3.5,3.5c-1.5,1.4-5.4,3.3-11.7,5.6C320.6,554.9,313.5,556.1,305.6,556.1z M318.3,492.8c0.3-1.9,0.4-4.2,0.4-6.8
		c0-2.7-1.1-5.5-3.2-8.5c-2.1-3-5.9-4.5-11.2-4.5c-5.3,0-9.4,1.6-12.2,4.8c-2.8,3.2-4.7,8.7-5.6,16.3L318.3,492.8z"/>
	<path class="st0" d="M447.4,555.7l-10.3-31.8c-2.1-6.4-3.8-14.5-5-24.1l-0.6-4.8h-2.8c-1.3,10.5-3.4,20.1-6,28.8l-9.5,32h-28.6
		l-25.4-79.1c-5.8-2-9.7-4.4-11.9-7.2l2-15.5h47.1l2,15.5c-2.4,2.8-6.5,5.2-12.3,7.2l11.7,51.3h2.8c1.5-7.1,3.2-14.4,5.2-21.9
		l13.7-51.7h22.5l13.5,51.3l5,22.3h2.8c5-22.7,8.3-37.9,10.1-45.7l1.2-5.6c-6-2.1-10.1-4.6-12.1-7.2l2-15.5h44.7l2,15.5
		c-2.3,3.1-6.5,5.6-12.7,7.6l-25.1,78.7L447.4,555.7L447.4,555.7z"/>
	<path class="st0" d="M512.2,574.6c4.8,0,8.2-1.2,10.3-3.7c2-2.5,3-7.3,3-14.6V439.2c-5.5-2-9.2-4.3-11.1-6.8l2-16.7h47.1l2,16.7
		c-2.2,2.5-5.8,4.8-11.1,6.8l-0.2,115.3c0,15.4-3,26.2-9,32.5c-6,6.2-15.6,9.3-29,9.3c-13.3,0-24.8-3.5-34.3-10.5c0-0.8,0-2.2,0-4.3
		s0.4-5.5,1.3-10.3s2.1-8.8,3.7-12h18.1c1.9,2.9,3.2,8,4,15.1C509.8,574.6,510.9,574.6,512.2,574.6z"/>
	<path class="st0" d="M619.3,556.1c-15.9,0-27.7-4.2-35.3-12.7c-7.6-8.5-11.5-21.2-11.5-38.3c0-17.1,4.3-30.2,12.8-39.2
		c8.5-9.1,20.8-13.6,36.7-13.6c16,0,27.8,4,35.5,12.1c7.7,8.1,11.6,20.6,11.6,37.7c0,17.1-4.3,30.4-13,39.8
		C647.5,551.4,635.2,556.1,619.3,556.1z M601.5,503.4c0,21.5,6.4,32.2,19.3,32.2c6.6,0,11.4-2.5,14.6-7.3c3.1-4.9,4.7-12.9,4.7-24
		c0-20.9-6.6-31.4-19.7-31.4c-6.4,0-11.2,2.3-14.3,6.9C603.1,484.4,601.5,492.3,601.5,503.4z"/>
	<path class="st0" d="M675.1,411.7c7.5-1.7,14.5-2.6,20.9-2.6s11.9,0.2,16.3,0.6V460c2.8-2,6.6-3.8,11.3-5.3
		c4.7-1.5,9.2-2.3,13.5-2.3c14.6,0,24.9,3.8,30.8,11.3c5.9,7.5,8.8,20.3,8.8,38.4c0,10.1-1.4,18.7-4.1,26
		c-2.8,7.3-6.5,12.9-11.2,16.8c-8.8,7.5-19.3,11.3-31.4,11.3c-9.1,0-18.1-2.3-27-6.8c-2.5,3.5-5.5,5.2-8.8,5.2h-10.1V434
		c-4.7-1.6-8.4-3.9-11.1-6.8L675.1,411.7z M728.5,535.6c12.9,0,19.3-10.8,19.3-32.4c0-11.4-1.1-19.1-3.3-23.2
		c-2.2-4.1-6.1-6.1-11.6-6.1c-8.3,0-15.2,2.2-20.5,6.6v51.7C718.1,534.5,723.5,535.6,728.5,535.6z"/>
	<path class="st0" d="M827.6,470.4c-8.8,0-13.3,2.6-13.3,7.9c0,5,4.6,8.6,13.9,11.1l15.9,4.2c16.4,4.3,24.5,13.8,24.5,28.4
		c0,10.1-3.5,18.3-10.6,24.6s-18.2,9.6-33.6,9.6c-15.4,0-27.3-2.1-35.9-6.4c-0.1-1.5-0.2-3-0.2-4.4c0-7.4,1.5-14,4.4-19.9h16.7
		c1.7,3.2,2.9,6.6,3.4,10.1c2.7,0.8,6.5,1.2,11.5,1.2c11.8,0,17.7-3.3,17.7-10.1c0-2.1-0.8-3.9-2.4-5.3c-1.6-1.4-4.8-2.8-9.5-4.1
		l-15.9-4.6c-8.2-2.3-14.6-5.7-19.1-10.2c-4.6-4.5-6.8-11.1-6.8-19.9c0-8.8,3.5-16,10.7-21.6c7.1-5.6,17.3-8.4,30.5-8.4
		c13.2,0,24.4,1.9,33.5,5.8c0.1,1.3,0.2,2.7,0.2,4c0,7-1.5,13.4-4.4,19.3h-16.5c-1.8-3.1-2.9-6.3-3.4-9.7
		C835.1,470.9,831.4,470.4,827.6,470.4z"/>
	<path class="st1" d="M912.5,386.9l20.4,7.9c-7.1,17.1-12.2,32.9-15,47.4c-1.4,7.3-2.5,15.1-3.2,23.1c-0.7,8.1-1.1,16.9-1.1,26.5
		c0,9.6,0.4,18.5,1.1,26.6c0.7,8.1,1.8,15.8,3.2,23.1c2.8,14.4,7.8,30.2,15,47.2l-20.4,7.9c-14.3-29.9-21.4-64.9-21.4-104.8
		S898.2,416.9,912.5,386.9z"/>
	<path class="st2" d="M979,577.8c2.4,0,5-2.2,7.7-6.7s4.7-9.8,5.7-16l-33-78.1c-6.6-2.1-11-4.7-13.3-7.6l2-15.5h46.3l2,15.5
		c-1.8,2.1-4.7,4.1-8.8,5.8l11.1,30.4c2.4,6.3,4.1,12.5,5,18.7l0.6,2.8h2.8c1.1-6.7,3-13.8,5.6-21.1l10.7-29.8
		c-5-1.9-8.5-4.2-10.5-6.8l2-15.5h44.3l2,15.5c-2.4,3.1-6.8,5.7-13.3,7.9l-33.2,78.5c-6.3,14.9-11.1,24.5-14.5,28.8
		c-5.9,7.9-14.1,11.9-24.6,11.9c-10.5,0-18.5-2.8-24-8.2c-0.1-1.3-0.2-2.7-0.2-4c0-7.4,1.5-14.4,4.6-20.9h16.7
		c2,3.6,3.2,8.5,3.4,14.7L979,577.8L979,577.8z"/>
	<path class="st2" d="M1109,556.1c-15.9,0-27.7-4.2-35.3-12.7c-7.6-8.5-11.5-21.2-11.5-38.3c0-17.1,4.3-30.2,12.8-39.2
		c8.5-9.1,20.8-13.6,36.7-13.6c16,0,27.8,4,35.5,12.1c7.7,8.1,11.6,20.6,11.6,37.7c0,17.1-4.3,30.4-13,39.8
		C1137.2,551.4,1124.9,556.1,1109,556.1z M1091.2,503.4c0,21.5,6.4,32.2,19.3,32.2c6.6,0,11.4-2.5,14.6-7.3c3.2-4.9,4.7-12.9,4.7-24
		c0-20.9-6.6-31.4-19.7-31.4c-6.4,0-11.2,2.3-14.3,6.9C1092.7,484.4,1091.2,492.3,1091.2,503.4z"/>
	<path class="st2" d="M1243.3,546.1c-9.2,6.7-20.2,10.1-32.7,10.1c-12.5,0-21.3-2.6-26.2-7.9c-5-5.2-7.4-13.8-7.4-25.5v-46.5
		c-4.7-1.6-8.4-3.9-11.1-6.8l2-15.5c7.5-1.7,14.5-2.6,20.9-2.6s11.9,0.2,16.3,0.6v64.2c0,7.2,1.1,12,3.3,14.4
		c2.2,2.4,6.6,3.5,13.2,3.5c6.6,0,12.7-2.1,18.3-6.4v-51.3c-4.7-1.6-8.4-3.9-11.1-6.8l2-15.5c7.5-1.7,14.5-2.6,20.9-2.6
		c6.4,0,11.9,0.2,16.3,0.6v78.5c4.7,0.9,8.4,2.1,11.1,3.4v15.9c-8.1,4.3-18.2,6.4-30.4,6.4C1245.4,553.7,1243.6,550.4,1243.3,546.1z
		"/>
	<path class="st1" d="M1316.2,596.6l-20.4-7.9c7.2-17.1,12.2-32.8,15-47.2c2.9-14.4,4.4-31,4.4-49.7c0-18.6-1.5-35.1-4.4-49.6
		c-2.9-14.5-7.9-30.2-15-47.3l20.4-7.9c14.3,29.9,21.4,64.9,21.4,104.8S1330.5,566.6,1316.2,596.6z"/>
</g>
</svg>
